<svg xmlns="http://www.w3.org/2000/svg" viewBox="-42.0 -938.0 2386.0 1500.0" role="img" aria-label="Lpdg — Los pibes de Gerli">
<g transform="scale(1,-1)" fill="#2bff88">
<path transform="translate(0.0,0)" d="M405 49Q402 55 396.0 71.0Q390 87 383.0 105.0Q376 123 369.5 139.0Q363 155 360 161Q358 165 356.5 169.0Q355 173 351 175Q329 154 302.5 131.0Q276 108 246.5 89.5Q217 71 185.0 59.5Q153 48 121 48Q86 48 66.0 72.5Q46 97 35.0 131.5Q24 166 21.0 202.0Q18 238 18 261Q18 307 33.0 344.5Q48 382 75.5 408.5Q103 435 141.0 449.0Q179 463 226 463Q259 463 284.0 447.5Q309 432 326.5 407.5Q344 383 355.5 354.0Q367 325 375 298Q384 303 396.5 321.5Q409 340 422.5 362.5Q436 385 448.5 407.5Q461 430 468 444Q471 449 481.5 469.5Q492 490 504.5 514.0Q517 538 527.5 559.0Q538 580 541 585Q542 587 546.0 592.5Q550 598 551 600Q550 600 550 601V603V606Q504 606 461.5 613.0Q419 620 387.0 639.0Q355 658 335.5 691.0Q316 724 316 778Q316 781 316.5 793.0Q317 805 317 809Q320 819 328.0 825.5Q336 832 346 834Q355 836 359.5 824.0Q364 812 367.5 792.0Q371 772 376.5 749.0Q382 726 395.5 705.5Q409 685 431.5 670.0Q454 655 492 653Q494 653 505.5 652.5Q517 652 525 652Q530 652 539.5 652.0Q549 652 558.5 652.5Q568 653 576.5 655.5Q585 658 589 663Q595 670 609.5 687.5Q624 705 639.0 724.0Q654 743 668.0 760.5Q682 778 688 785Q705 802 726.0 819.0Q747 836 770.0 849.0Q793 862 818.0 870.0Q843 878 869 878Q887 878 899.5 871.0Q912 864 919.0 852.5Q926 841 928.5 826.5Q931 812 931 797Q931 768 916.5 746.0Q902 724 879.0 707.0Q856 690 829.5 678.0Q803 666 779 658Q771 655 750.0 649.0Q729 643 704.5 635.5Q680 628 658.5 622.0Q637 616 628 615Q621 608 612.5 598.0Q604 588 600 580L477 355Q476 355 474.5 353.5Q473 352 472 351Q472 349 469.0 343.5Q466 338 463.0 331.5Q460 325 457.0 319.0Q454 313 454 312Q451 308 443.5 296.5Q436 285 427.0 272.5Q418 260 410.5 249.0Q403 238 400 234V231V229Q407 203 412.5 184.5Q418 166 423.5 149.0Q429 132 437.0 113.0Q445 94 458 68Q462 61 469.0 55.0Q476 49 483.5 43.0Q491 37 496.5 30.5Q502 24 502 17Q502 -1 484 -1Q458 -1 438.0 14.0Q418 29 405 49ZM68 271Q68 259 70.0 231.5Q72 204 78.5 175.5Q85 147 98.5 125.0Q112 103 135 103Q162 103 183.5 115.0Q205 127 229 137L332 234V238Q332 256 323.5 285.0Q315 314 300.0 342.0Q285 370 265.0 389.5Q245 409 222 409Q189 409 160.5 401.0Q132 393 112.0 376.0Q92 359 80.0 333.0Q68 307 68 271ZM860 824Q836 824 812.0 814.0Q788 804 766.0 788.0Q744 772 725.0 753.0Q706 734 692 717Q688 713 682.5 705.0Q677 697 671.5 690.5Q666 684 662.0 678.5Q658 673 658 673V668H662Q663 668 676.0 672.0Q689 676 706.5 681.5Q724 687 742.0 692.5Q760 698 770 702Q785 707 804.5 715.5Q824 724 841.5 736.0Q859 748 871.0 763.0Q883 778 883 797Q883 813 878.5 818.5Q874 824 860 824Z"/>
<path transform="translate(691.0,0)" d="M-31 -213Q-31 -184 -24.0 -148.5Q-17 -113 -9.0 -77.5Q-1 -42 6.0 -8.0Q13 26 13 56V64L37 131Q50 160 67.0 191.0Q84 222 105.5 248.5Q127 275 155.0 293.5Q183 312 218 317Q230 319 244.0 312.5Q258 306 270.5 296.0Q283 286 291.0 273.0Q299 260 301 248Q301 246 301.0 240.0Q301 234 301.0 227.0Q301 220 301.0 214.0Q301 208 301 205Q301 177 293.0 151.0Q285 125 285 101V98Q288 100 299.0 105.0Q310 110 324.5 116.0Q339 122 356.5 129.0Q374 136 390.0 142.0Q406 148 418.5 151.5Q431 155 436 155Q448 155 450.5 151.5Q453 148 453 140Q453 129 440.0 118.0Q427 107 406.5 97.0Q386 87 361.5 78.5Q337 70 314.5 63.0Q292 56 275.0 49.5Q258 43 252 40Q241 32 231.5 23.0Q222 14 212.0 7.0Q202 0 191.0 -5.0Q180 -10 166 -10Q145 -10 125.5 1.5Q106 13 90 25L85 21Q85 20 78.5 -6.0Q72 -32 63.5 -66.5Q55 -101 46.5 -135.0Q38 -169 33 -188Q31 -199 30.0 -210.5Q29 -222 25.5 -232.5Q22 -243 14.0 -250.0Q6 -257 -8 -257H-21Q-27 -245 -29.0 -235.5Q-31 -226 -31 -213ZM103 82Q114 75 126.0 74.0Q138 73 149.5 74.5Q161 76 172.5 79.0Q184 82 195 82Q197 82 204.0 82.5Q211 83 212 83Q224 89 231.0 105.0Q238 121 241.5 139.0Q245 157 246.0 174.5Q247 192 247 202Q247 211 246.0 221.0Q245 231 241.5 239.5Q238 248 232.0 254.0Q226 260 215 260Q213 260 208.5 259.5Q204 259 202 259Q198 247 185.5 226.5Q173 206 159.5 184.0Q146 162 135.0 141.5Q124 121 124 110Z"/>
<path transform="translate(1109.0,0)" d="M258 151Q253 146 239.0 134.0Q225 122 209.5 108.5Q194 95 180.0 83.5Q166 72 160 68Q158 67 148.5 61.5Q139 56 127.0 48.5Q115 41 102.5 34.5Q90 28 83 24Q71 18 66.0 15.5Q61 13 51 13Q35 13 17.5 23.5Q0 34 0 53V161L14 234Q25 276 39.0 302.5Q53 329 74.0 346.5Q95 364 124.5 373.0Q154 382 194 390Q196 391 207.0 395.0Q218 399 220 400H234Q250 400 262.5 393.0Q275 386 287 375L337 589Q335 600 337.0 619.5Q339 639 344.5 659.0Q350 679 359.0 693.0Q368 707 380 707Q395 707 403.5 696.0Q412 685 409 668L355 341Q337 298 328.5 255.0Q320 212 320 166Q320 145 323.0 124.0Q326 103 334.5 86.0Q343 69 358.0 58.5Q373 48 397 48Q450 48 502.0 67.5Q554 87 594 121Q596 121 597.0 121.5Q598 122 600 122Q608 122 614 117Q614 115 614.5 111.0Q615 107 615 105Q615 89 602.0 75.0Q589 61 568.5 49.0Q548 37 523.5 28.0Q499 19 474.5 12.0Q450 5 429.0 2.0Q408 -1 396 -1Q361 -1 337.5 10.5Q314 22 298.5 43.0Q283 64 275.0 91.5Q267 119 263 151ZM63 190Q63 184 61.5 170.0Q60 156 58.5 139.5Q57 123 55.5 108.5Q54 94 53 87Q53 85 52.5 77.0Q52 69 52 67Q66 67 88.0 78.5Q110 90 134.0 108.5Q158 127 183.0 150.5Q208 174 227.5 197.0Q247 220 260.0 242.5Q273 265 273 281Q273 286 265.5 295.0Q258 304 248.5 312.0Q239 320 229.5 326.0Q220 332 213 332Q192 339 164.5 328.5Q137 318 113.0 296.5Q89 275 74.0 247.0Q59 219 63 190Z"/>
<path transform="translate(1678.0,0)" d="M88 -488Q83 -473 79.5 -460.0Q76 -447 75.0 -435.5Q74 -424 73.5 -412.5Q73 -401 73 -385Q73 -383 73.0 -377.5Q73 -372 73.0 -365.5Q73 -359 73.5 -353.5Q74 -348 74 -346Q85 -297 98.5 -249.5Q112 -202 131.0 -157.5Q150 -113 177.0 -73.5Q204 -34 244 0Q245 5 247.0 20.0Q249 35 252.0 51.0Q255 67 256.5 81.5Q258 96 259 103Q259 105 258.5 112.5Q258 120 258 122H255Q220 104 188.0 90.5Q156 77 118 77Q97 77 82.5 84.0Q68 91 59.0 103.0Q50 115 45.5 131.0Q41 147 40 166L64 239Q73 264 86.5 292.5Q100 321 117.5 347.0Q135 373 158.0 394.5Q181 416 210 425Q249 431 282.5 423.0Q316 415 341.0 400.0Q366 385 381.5 367.5Q397 350 400 337Q398 322 391.0 305.5Q384 289 375.5 272.5Q367 256 358.5 242.5Q350 229 346 220Q338 202 332.0 182.0Q326 162 321.5 141.0Q317 120 314.5 98.5Q312 77 312 59V44Q363 74 422.0 91.0Q481 108 539 108Q546 108 557.5 108.0Q569 108 579.5 105.5Q590 103 598.0 96.5Q606 90 606 78Q606 59 585 59Q582 59 571.0 60.5Q560 62 556 64Q549 63 532.0 60.0Q515 57 495.0 53.0Q475 49 458.0 45.0Q441 41 434 40Q431 39 422.5 35.5Q414 32 404.0 28.0Q394 24 384.5 20.5Q375 17 372 14Q364 12 353.5 6.5Q343 1 333.0 -4.5Q323 -10 315.5 -14.5Q308 -19 308 -20L298 -34L274 -287Q271 -313 259.5 -350.0Q248 -387 229.0 -421.0Q210 -455 182.5 -478.5Q155 -502 120 -502Q110 -502 102.5 -499.5Q95 -497 88 -488ZM122 -390Q123 -399 124.5 -416.0Q126 -433 131 -444Q150 -439 166.0 -416.5Q182 -394 193.0 -366.0Q204 -338 211.0 -310.5Q218 -283 220 -268Q224 -245 226.5 -224.5Q229 -204 231.0 -185.5Q233 -167 234.0 -149.0Q235 -131 235 -110Q235 -107 234.5 -96.5Q234 -86 234 -83Q207 -118 189.0 -154.0Q171 -190 158.5 -227.5Q146 -265 137.5 -305.5Q129 -346 122 -390ZM98 147Q101 139 106.5 133.0Q112 127 122 127Q163 127 195.5 144.5Q228 162 253.0 190.0Q278 218 296.5 251.0Q315 284 328 317V321Q312 354 291.5 363.5Q271 373 248.5 366.5Q226 360 203.0 340.5Q180 321 159.5 296.5Q139 272 123.0 245.0Q107 218 98.0 195.5Q89 173 88.0 159.0Q87 145 98 147Z"/>
</g></svg>